#!OML:ASF F:\VICON\USERDATA\INSTALL\Justin_Nancy\Justin_Nancy.ASF
:FULLY-SPECIFIED
:DEGREES
17
root -10.1177 17.073 -23.5128 4.95962 -1.93392 -8.71244
lowerback 14.2196 1.42836 7.04641
upperback 0.510744 3.48207 5.79196
thorax -7.41396 1.54815 1.51187
lowerneck -16.7209 -5.64142 -9.98831
upperneck 16.0251 -6.1241 4.73696
head 8.18692 -3.05494 2.46402
rclavicle -1.19271e-015 4.77083e-014
rhumerus -39.9074 18.5967 -92.4851
rradius 112.041
rwrist -6.32961
rhand -17.6218 29.7534
rfingers 7.12502
rthumb 8.63537 -0.0500148
lclavicle -1.19271e-015 4.77083e-014
lhumerus -58.1512 -5.01681 96.1975
lradius 87.959
lwrist 20.1668
lhand -16.7121 5.82097
lfingers 7.12502
lthumb 9.51309 35.5862
rfemur 11.8784 5.64015 22.9242
rtibia 30.2522
rfoot 16.5495 -4.1168
rtoes -8.45677
lfemur -44.1191 -4.11881 -17.8276
ltibia 53.3909
lfoot -2.3815 2.09841
ltoes -8.94012
18
root -10.0559 17.1381 -22.8584 5.13537 -2.52509 -8.70742
lowerback 13.8218 1.91337 6.81005
upperback 0.347582 4.04567 5.62833
thorax -7.35718 1.82729 1.36743
lowerneck -16.4398 -5.90679 -9.73966
upperneck 16.1456 -6.59453 4.78395
head 8.20708 -3.26257 2.38402
rclavicle 1.96797e-014 -7.95139e-016
rhumerus -41.0186 18.9686 -93.3042
rradius 111.911
rwrist -6.51872
rhand -20.5974 34.1378
rfingers 7.12502
rthumb 5.76305 4.2362
lclavicle 1.96797e-014 -7.95139e-016
lhumerus -58.4726 -5.30279 96.378
lradius 87.9578
lwrist 19.7118
lhand -16.4286 5.23025
lfingers 7.12502
lthumb 9.78663 34.9828
rfemur 12.802 7.82913 22.986
rtibia 30.1478
rfoot 21.7553 -2.66356
rtoes 0.826809
lfemur -43.1681 -3.56875 -17.8343
ltibia 47.9099
lfoot -2.38072 1.01595
ltoes -15.6114
19
root -9.97585 17.2186 -22.2092 5.41273 -2.5353 -8.36631
lowerback 13.2125 2.18371 6.56475
upperback 0.232386 4.28897 5.32812
thorax -7.12427 1.95506 1.15747
lowerneck -16.4196 -6.20229 -9.6045
upperneck 16.1977 -7.10099 5.09278
head 8.26582 -3.46348 2.39996
rclavicle -1.47101e-014 -4.85035e-014
rhumerus -41.3982 18.5364 -93.3299
rradius 111.61
rwrist -8.39062
rhand -16.2276 34.0349
rfingers 7.12502
rthumb 9.98062 4.29157
lclavicle -1.47101e-014 -4.85035e-014
lhumerus -58.462 -5.58866 96.5093
lradius 88.0743
lwrist 19.181
lhand -16.4597 5.33286
lfingers 7.12502
lthumb 9.75665 35.0869
rfemur 12.7872 8.97604 22.6239
rtibia 31.1863
rfoot 23.002 -0.123767
rtoes 7.24201
lfemur -42.0633 -3.51837 -18.278
ltibia 42.7325
lfoot -1.08415 1.06227
ltoes -14.8325
20
root -9.89362 17.2602 -21.5768 5.71209 -2.30044 -7.95575
lowerback 12.3029 2.3248 6.32536
upperback 0.264163 4.32134 5.00455
thorax -6.56513 1.99065 0.977941
lowerneck -16.4162 -6.30493 -9.42208
upperneck 16.1254 -7.36964 5.50841
head 8.27024 -3.53778 2.47557
rclavicle 2.44505e-014 2.14687e-014
rhumerus -41.7454 18.9375 -93.8832
rradius 110.866
rwrist -8.79575
rhand -18.6279 42.4867
rfingers 7.12502
rthumb 7.66432 12.6455
lclavicle 2.44505e-014 2.14687e-014
lhumerus -58.1336 -5.92326 96.5575
lradius 88.2288
lwrist 18.5978
lhand -16.4021 5.26488
lfingers 7.12502
lthumb 9.8122 35.0163
rfemur 12.3377 9.37953 22.0936
rtibia 33.2905
rfoot 20.9685 2.05069
rtoes 5.58658
lfemur -41.1635 -3.78938 -18.7868
ltibia 38.3597
lfoot -0.252752 2.12414
ltoes -13.0825
21
root -9.84123 17.2659 -20.9675 5.59816 -2.13118 -8.24044
lowerback 11.5192 2.44902 6.14183
upperback 0.802981 4.35103 5.2355
thorax -5.58096 2.04645 1.36127
lowerneck -16.7686 -6.37063 -9.52261
upperneck 15.8533 -7.44021 5.7683
head 8.26046 -3.54403 2.5621
rclavicle -1.05356e-014 -1.90833e-014
rhumerus -41.5211 19.5878 -93.7579
rradius 110.106
rwrist -7.97523
rhand -20.1906 37.7309
rfingers 7.12502
rthumb 6.15582 7.84037
lclavicle -1.05356e-014 -1.90833e-014
lhumerus -57.0283 -5.97912 96.9328
lradius 88.3727
lwrist 17.9553
lhand -16.1726 4.63
lfingers 7.12502
lthumb 10.0336 34.3708
rfemur 11.947 10.1472 22.787
rtibia 36.4745
rfoot 17.0342 2.16506
rtoes 1.49963
lfemur -40.089 -3.62474 -18.5641
ltibia 34.8801
lfoot 0.914003 3.46509
ltoes -11.1026
22
root -9.80768 17.2491 -20.3844 5.28102 -1.7021 -9.21074
lowerback 12.5148 2.23188 6.43307
upperback 0.558816 4.253 5.61766
thorax -6.41396 1.97149 1.57571
lowerneck -17.1076 -6.34385 -9.64495
upperneck 16.2416 -7.40772 6.02144
head 8.46327 -3.5057 2.66387
rclavicle 5.88403e-014 4.77083e-015
rhumerus -42.4207 20.077 -94.2491
rradius 109.272
rwrist -6.91343
rhand -20.6843 38.4564
rfingers 7.12502
rthumb 5.67917 8.55248
lclavicle 5.88403e-014 4.77083e-015
lhumerus -57.025 -5.56206 97.0711
lradius 88.7828
lwrist 17.8484
lhand -15.9137 4.32383
lfingers 7.12502
lthumb 10.2834 34.0524
rfemur 11.2673 10.5358 24.4008
rtibia 40.4554
rfoot 12.9447 1.00712
rtoes -3.80799
lfemur -39.1457 -3.19276 -17.7556
ltibia 32.5181
lfoot 2.8747 4.55627
ltoes -8.98272
23
root -9.76868 17.2394 -19.8199 5.03383 -0.888732 -9.96239
lowerback 13.4607 1.81615 6.85034
upperback 0.309108 3.89867 5.72389
thorax -7.20307 1.76272 1.48701
lowerneck -17.3017 -6.19143 -9.33809
upperneck 16.2662 -7.29632 6.19358
head 8.49055 -3.41335 2.68476
rclavicle 2.78299e-014 -1.43125e-014
rhumerus -42.9309 20.3641 -95.0175
rradius 108.129
rwrist -6.35032
rhand -19.5845 32.4353
rfingers 7.12502
rthumb 6.74093 2.56264
lclavicle 2.78299e-014 -1.43125e-014
lhumerus -56.7925 -5.42763 96.9499
lradius 89.1789
lwrist 17.985
lhand -16.0714 4.78471
lfingers 7.12502
lthumb 10.1312 34.5208
rfemur 9.87503 9.91837 25.4609
rtibia 44.8225
rfoot 10.864 -0.608458
rtoes -8.26415
lfemur -38.5136 -2.86467 -17.415
ltibia 31.2916
lfoot 4.81248 5.16262
ltoes -4.29626
24
root -9.72601 17.2349 -19.2732 5.16684 0.383421 -10.3373
lowerback 13.9119 1.29869 6.82804
upperback 0.00395881 3.30306 5.86228
thorax -7.81168 1.45963 1.75319
lowerneck -17.2323 -5.98603 -9.06536
upperneck 15.9585 -7.08136 6.21523
head 8.34666 -3.29451 2.67923
rclavicle -7.55382e-015 3.65764e-014
rhumerus -43.349 20.7303 -95.5885
rradius 106.981
rwrist -6.63781
rhand -18.6306 29.7716
rfingers 7.12502
rthumb 7.66172 -0.0696013
lclavicle -7.55382e-015 3.65764e-014
lhumerus -56.3475 -5.37718 97.0038
lradius 89.6277
lwrist 18.4787
lhand -16.3585 5.23238
lfingers 7.12502
lthumb 9.85433 34.9818
rfemur 7.43665 8.25642 25.7567
rtibia 49.5405
rfoot 10.7857 -2.25545
rtoes -8.32422
lfemur -38.4575 -2.66794 -17.7213
ltibia 31.1817
lfoot 5.6911 4.50946
ltoes 0.973971
25
root -9.64074 17.241 -18.6387 4.75252 -0.382062 -10.0073
lowerback 13.9854 1.41546 5.89918
upperback 0.119535 3.30916 5.9101
thorax -7.78023 1.50189 2.31951
lowerneck -16.7849 -5.72212 -9.05886
upperneck 15.6888 -6.73228 6.13218
head 8.14607 -3.14637 2.70543
rclavicle 4.47266e-014 3.65764e-014
rhumerus -44.2442 21.1528 -96.0498
rradius 106.04
rwrist -7.22646
rhand -17.2965 29.3645
rfingers 7.12502
rthumb 8.94925 -0.42565
lclavicle 4.47266e-014 3.65764e-014
lhumerus -56.0656 -5.2634 97.3972
lradius 90.1246
lwrist 19.1538
lhand -17.1539 5.41728
lfingers 7.12502
lthumb 9.08682 35.2015
rfemur 5.71652 7.77263 24.6933
rtibia 54.1726
rfoot 11.1449 -3.47893
rtoes -8.01354
lfemur -37.0284 -1.15884 -18.9432
ltibia 31.9982
lfoot 4.43234 3.87619
ltoes 7.62312
26
root -9.5665 17.2245 -18.016 4.87252 -0.880313 -9.48592
lowerback 13.4137 1.51996 4.80295
upperback 0.113452 3.2177 5.86253
thorax -7.51727 1.50448 2.91183
lowerneck -16.4602 -5.46225 -9.10619
upperneck 15.5023 -6.40804 6.2481
head 8.00646 -2.99077 2.80025
rclavicle 2.60408e-014 -4.45278e-014
rhumerus -45.0608 21.1447 -96.3618
rradius 105.231
rwrist -7.14254
rhand -19.8305 28.3178
rfingers 7.12502
rthumb 6.50346 -1.56231
lclavicle 2.60408e-014 -4.45278e-014
lhumerus -55.4874 -5.50455 97.7032
lradius 90.4887
lwrist 19.7263
lhand -17.0831 5.32912
lfingers 7.12502
lthumb 9.15518 35.1104
rfemur 3.1648 6.96799 23.3582
rtibia 58.7788
rfoot 10.7526 -4.6818
rtoes -6.67913
lfemur -36.1581 0.641354 -20.5142
ltibia 33.4706
lfoot 2.20953 2.97636
ltoes 13.1366
